<svg width="198" height="246" viewBox="0 0 198 246" fill="none" xmlns="http://www.w3.org/2000/svg">
<path fill-rule="evenodd" clip-rule="evenodd" d="M39.8037 27.1297C38.0213 28.3098 37.5911 29.3424 37.5911 30.7314C37.5911 32.1082 38.0213 33.1531 39.8037 34.3332C41.9427 35.7591 45.5567 36.8777 49.8837 36.8777H62.1762C65.4364 36.8777 68.5631 38.1728 70.8684 40.4781C73.1737 42.7834 74.4688 45.9101 74.4688 49.1703C74.4688 52.4305 73.1737 55.5571 70.8684 57.8624C68.5631 60.1677 65.4364 61.4629 62.1762 61.4629H43.7374C39.4104 61.4629 35.7964 62.5692 33.6575 64.0074C31.875 65.1875 31.4448 66.2201 31.4448 67.6091C31.4448 68.9859 31.875 70.0308 33.6575 71.2109C35.7964 72.6368 39.4104 73.7554 43.7374 73.7554H56.0299C59.2901 73.7554 62.4168 75.0505 64.7221 77.3558C67.0274 79.6611 68.3225 82.7878 68.3225 86.048C68.3225 89.3082 67.0274 92.4348 64.7221 94.7402C62.4168 97.0455 59.2901 98.3406 56.0299 98.3406H37.5911C33.2641 98.3406 29.6501 99.4469 27.5112 100.885C25.7287 102.065 25.2985 103.098 25.2985 104.487C25.2985 105.864 25.7287 106.908 27.5112 108.089C29.6501 109.515 33.2641 110.633 37.5911 110.633H49.8837C53.1438 110.633 56.2705 111.928 58.5758 114.234C60.8811 116.539 62.1762 119.666 62.1762 122.926C62.1762 126.186 60.8811 129.313 58.5758 131.618C56.2705 133.923 53.1438 135.218 49.8837 135.218H37.5911C33.2641 135.218 29.6501 136.325 27.5112 137.763C25.7287 138.943 25.2985 139.976 25.2985 141.365C25.2985 142.741 25.7287 143.786 27.5112 144.966C29.6501 146.392 33.2641 147.511 37.5911 147.511H92.9077C94.862 147.51 96.7884 147.976 98.5269 148.869C100.265 149.762 101.766 151.056 102.904 152.645C104.042 154.234 104.785 156.071 105.071 158.004C105.357 159.938 105.178 161.911 104.549 163.762V163.774L104.5 163.897L104.34 164.389L103.688 166.478C103.147 168.322 102.398 170.99 101.623 174.198C99.7532 181.721 98.6088 189.407 98.2057 197.148C97.8861 205.556 99.0048 211.998 101.254 215.944C102.582 218.279 104.586 220.381 109.244 221.045C109.835 219.029 110.375 216.276 111.162 212.244L111.678 209.662C114.137 197.21 118.267 178.525 133.387 163.405C134.764 162.028 136.276 160.578 137.874 159.029C151.912 145.495 172.809 125.335 172.809 92.1943C172.809 74.2102 165.065 57.1605 153.129 44.5606C141.119 31.8869 125.741 24.5851 111.347 24.5851H49.8837C45.5567 24.5851 41.9427 25.6915 39.8037 27.1297ZM108.372 223.417L108.384 223.393V223.417H108.372ZM76.8904 172.096C75.1077 180.026 74.0178 188.095 73.6329 196.214C73.2641 206.245 74.2475 218.242 79.9021 228.126C86.1713 239.14 97.2592 245.851 112.576 245.851C117.272 245.851 121.672 244.303 125.237 241.18C128.47 238.353 130.314 234.837 131.457 232.01C133.276 227.499 134.407 221.647 135.354 216.706L135.796 214.432C138.181 202.299 141.304 190.252 150.769 180.787C151.851 179.705 153.166 178.451 154.666 177.038C168.47 163.946 197.395 136.534 197.395 92.1943C197.395 67.1543 186.7 44.2533 170.978 27.6583C155.329 11.1371 133.83 0 111.347 0H49.8837C41.9181 0 33.2395 1.96681 26.159 6.67487C18.722 11.6411 13.0059 19.8279 13.0059 30.7314C13.0059 36.4966 14.604 41.4874 17.1854 45.6546C11.1743 50.6946 6.85965 58.1193 6.85965 67.6091C6.85965 73.3744 8.45769 78.3651 11.0391 82.5323C5.04035 87.5723 0.713366 94.997 0.713366 104.487C0.713366 111.973 3.40544 118.168 7.48657 122.926C3.05871 128.042 0.650304 134.599 0.713366 141.365C0.713366 152.28 6.42941 160.455 13.8664 165.421C20.9469 170.141 29.6255 172.096 37.5911 172.096H76.8904Z" fill="black"/>
<path d="M39.8037 27.1297C38.0213 28.3098 37.5911 29.3424 37.5911 30.7314C37.5911 32.1082 38.0213 33.1531 39.8037 34.3332C41.9427 35.7591 45.5567 36.8777 49.8837 36.8777H62.1762C65.4364 36.8777 68.5631 38.1728 70.8684 40.4781C73.1737 42.7834 74.4688 45.9101 74.4688 49.1703C74.4688 52.4305 73.1737 55.5571 70.8684 57.8624C68.5631 60.1677 65.4364 61.4629 62.1762 61.4629H43.7374C39.4104 61.4629 35.7964 62.5692 33.6575 64.0074C31.875 65.1875 31.4448 66.2201 31.4448 67.6091C31.4448 68.9859 31.875 70.0308 33.6575 71.2109C35.7964 72.6368 39.4104 73.7554 43.7374 73.7554H56.0299C59.2901 73.7554 62.4168 75.0505 64.7221 77.3558C67.0274 79.6611 68.3225 82.7878 68.3225 86.048C68.3225 89.3082 67.0274 92.4348 64.7221 94.7402C62.4168 97.0455 59.2901 98.3406 56.0299 98.3406H37.5911C33.2641 98.3406 29.6501 99.4469 27.5112 100.885C25.7287 102.065 25.2985 103.098 25.2985 104.487C25.2985 105.864 25.7287 106.908 27.5112 108.089C29.6501 109.515 33.2641 110.633 37.5911 110.633H49.8837C53.1438 110.633 56.2705 111.928 58.5758 114.234C60.8811 116.539 62.1762 119.666 62.1762 122.926C62.1762 126.186 60.8811 129.313 58.5758 131.618C56.2705 133.923 53.1438 135.218 49.8837 135.218H37.5911C33.2641 135.218 29.6501 136.325 27.5112 137.763C25.7287 138.943 25.2985 139.976 25.2985 141.365C25.2985 142.741 25.7287 143.786 27.5112 144.966C29.6501 146.392 33.2641 147.511 37.5911 147.511H92.9077C94.862 147.51 96.7884 147.976 98.5269 148.869C100.265 149.762 101.766 151.056 102.904 152.645C104.042 154.234 104.785 156.071 105.071 158.004C105.357 159.938 105.178 161.911 104.549 163.762V163.774L104.5 163.897L104.34 164.389L103.688 166.478C103.147 168.322 102.398 170.99 101.623 174.198C99.7532 181.721 98.6088 189.407 98.2057 197.148C97.8861 205.556 99.0048 211.998 101.254 215.944C102.582 218.279 104.586 220.381 109.244 221.045C109.835 219.029 110.375 216.276 111.162 212.244L111.678 209.662C114.137 197.21 118.267 178.525 133.387 163.405C134.764 162.028 136.276 160.578 137.874 159.029C151.912 145.495 172.809 125.335 172.809 92.1943C172.809 74.2102 165.065 57.1605 153.129 44.5606C141.119 31.8869 125.741 24.5851 111.347 24.5851H49.8837C45.5567 24.5851 41.9427 25.6915 39.8037 27.1297Z" fill="black"/>
</svg>
