<svg width="197" height="246" viewBox="0 0 197 246" fill="none" xmlns="http://www.w3.org/2000/svg">
<path d="M85.7161 36.3378C83.2576 48.7901 79.1273 67.4748 64.0074 82.5947C62.6306 83.9715 61.1187 85.422 59.5206 86.9709C45.4825 100.505 24.5851 120.665 24.5851 153.806C24.5851 171.79 32.3295 188.839 44.2655 201.439C56.2754 214.113 71.6534 221.415 86.048 221.415H147.511C151.838 221.415 155.452 220.308 157.591 218.87C159.373 217.69 159.803 216.657 159.803 215.268C159.803 213.892 159.373 212.847 157.591 211.667C155.452 210.241 151.838 209.122 147.511 209.122H135.218C131.958 209.122 128.831 207.827 126.526 205.522C124.221 203.216 122.926 200.09 122.926 196.83C122.926 193.569 124.221 190.443 126.526 188.137C128.831 185.832 131.958 184.537 135.218 184.537H153.657C157.984 184.537 161.598 183.431 163.737 181.992C165.519 180.812 165.95 179.78 165.95 178.391C165.95 177.014 165.519 175.969 163.737 174.789C161.598 173.363 157.984 172.244 153.657 172.244H141.365C138.104 172.244 134.978 170.949 132.672 168.644C130.367 166.339 129.072 163.212 129.072 159.952C129.072 156.692 130.367 153.565 132.672 151.26C134.978 148.954 138.104 147.659 141.365 147.659H159.803C164.13 147.659 167.744 146.553 169.883 145.115C171.666 143.935 172.096 142.902 172.096 141.513C172.096 140.136 171.666 139.091 169.883 137.911C167.744 136.485 164.13 135.367 159.803 135.367H147.511C144.251 135.367 141.124 134.072 138.819 131.766C136.513 129.461 135.218 126.334 135.218 123.074C135.218 119.814 136.513 116.687 138.819 114.382C141.124 112.077 144.251 110.782 147.511 110.782H159.803C164.13 110.782 167.744 109.675 169.883 108.237C171.666 107.057 172.096 106.024 172.096 104.635C172.096 103.259 171.666 102.214 169.883 101.034C167.744 99.6076 164.13 98.489 159.803 98.489H104.487C102.532 98.4895 100.606 98.024 98.8676 97.1311C97.1292 96.2383 95.6286 94.9437 94.4905 93.3549C93.3524 91.7661 92.6095 89.9289 92.3235 87.9955C92.0374 86.0622 92.2165 84.0885 92.8458 82.2382V82.2259L92.895 82.103L93.0548 81.6113L93.7063 79.5216C94.2471 77.6777 94.997 75.0102 95.7714 71.8018C97.6406 64.2826 98.785 56.6015 99.1888 48.8639C99.5084 40.4435 98.3897 33.9899 96.1402 30.0563C94.8126 27.7207 92.8089 25.6186 88.15 24.9548C87.56 26.9708 87.0191 29.7244 86.2324 33.7563L85.7161 36.3378Z" fill="black"/>
<path fill-rule="evenodd" clip-rule="evenodd" d="M120.504 73.9039C122.004 67.0446 123.43 58.5013 123.762 49.7735C124.13 39.7551 123.147 27.7698 117.492 17.8743C111.223 6.86018 100.135 0.148438 84.8187 0.148438C80.123 0.148438 75.7222 1.6973 72.1574 4.81962C68.9244 7.64691 67.0806 11.1626 65.9374 13.9899C64.1181 18.5012 62.9871 24.3525 62.0406 29.2941L61.5981 31.5683C59.2133 43.701 56.091 55.7477 46.6257 65.213C45.544 66.2948 44.2287 67.5486 42.729 68.9623C28.9244 82.0415 0 109.466 0 153.806C0 178.846 10.6945 201.747 26.4167 218.342C42.0652 234.863 63.5649 246 86.048 246H147.511C155.476 246 164.155 244.033 171.236 239.325C178.673 234.359 184.389 226.172 184.389 215.268C184.389 209.503 182.791 204.512 180.209 200.333C186.22 195.293 190.535 187.881 190.535 178.391C190.535 172.626 188.937 167.622 186.355 163.468C192.366 158.428 196.681 151.003 196.681 141.513C196.681 134.027 194.001 127.831 189.908 123.074C193.989 118.317 196.681 112.121 196.681 104.635C196.681 93.7195 190.965 85.5449 183.528 80.5787C176.448 75.8584 167.769 73.9039 159.803 73.9039H120.504ZM64.0074 82.5947C79.1273 67.4748 83.2576 48.7901 85.7161 36.3378L86.2324 33.7563C87.0191 29.7244 87.56 26.9708 88.15 24.9548C92.8089 25.6186 94.8126 27.7207 96.1402 30.0563C98.3897 33.9899 99.5084 40.4435 99.1888 48.8639C98.785 56.6015 97.6406 64.2826 95.7714 71.8018C94.997 75.0102 94.2471 77.6777 93.7063 79.5216L93.0548 81.6113L92.895 82.103L92.8458 82.2259V82.2382C92.2165 84.0885 92.0374 86.0622 92.3235 87.9955C92.6095 89.9289 93.3524 91.7661 94.4905 93.3549C95.6286 94.9437 97.1292 96.2383 98.8676 97.1311C100.606 98.024 102.532 98.4895 104.487 98.489H159.803C164.13 98.489 167.744 99.6076 169.883 101.034C171.666 102.214 172.096 103.259 172.096 104.635C172.096 106.024 171.666 107.057 169.883 108.237C167.744 109.675 164.13 110.782 159.803 110.782H147.511C144.251 110.782 141.124 112.077 138.819 114.382C136.513 116.687 135.218 119.814 135.218 123.074C135.218 126.334 136.513 129.461 138.819 131.766C141.124 134.072 144.251 135.367 147.511 135.367H159.803C164.13 135.367 167.744 136.485 169.883 137.911C171.666 139.091 172.096 140.136 172.096 141.513C172.096 142.902 171.666 143.935 169.883 145.115C167.744 146.553 164.13 147.659 159.803 147.659H141.365C138.104 147.659 134.978 148.954 132.672 151.26C130.367 153.565 129.072 156.692 129.072 159.952C129.072 163.212 130.367 166.339 132.672 168.644C134.978 170.949 138.104 172.244 141.365 172.244H153.657C157.984 172.244 161.598 173.363 163.737 174.789C165.519 175.969 165.95 177.014 165.95 178.391C165.95 179.78 165.519 180.812 163.737 181.992C161.598 183.431 157.984 184.537 153.657 184.537H135.218C131.958 184.537 128.831 185.832 126.526 188.137C124.221 190.443 122.926 193.569 122.926 196.83C122.926 200.09 124.221 203.216 126.526 205.522C128.831 207.827 131.958 209.122 135.218 209.122H147.511C151.838 209.122 155.452 210.241 157.591 211.667C159.373 212.847 159.803 213.892 159.803 215.268C159.803 216.657 159.373 217.69 157.591 218.87C155.452 220.308 151.838 221.415 147.511 221.415H86.048C71.6534 221.415 56.2754 214.113 44.2655 201.439C32.3295 188.839 24.5851 171.79 24.5851 153.806C24.5851 120.665 45.4825 100.505 59.5206 86.9709C61.1187 85.422 62.6306 83.9715 64.0074 82.5947Z" fill="black"/>
</svg>
